<svg width="120" height="120" viewBox="0 0 120 120" fill="none" xmlns="http://www.w3.org/2000/svg">
  <!-- Magnifying glass lens -->
  <circle cx="56" cy="56" r="28" stroke="#3573FA" stroke-width="5" fill="#F6F9FE"></circle>
  <!-- Magnifying glass handle -->
  <rect x="75" y="75" width="28" height="7" rx="3.5" transform="rotate(45 75 75)" fill="#3573FA"></rect>
  <!-- Gear inside the lens -->
  <g>
    <!-- 10 fat, short teeth -->
    <g>
      <g transform="rotate(0 56 56)">
        <rect x="54.6" y="40.5" width="2.8" height="3.5" rx="0.9" fill="#2976DE"></rect>
      </g>
      <g transform="rotate(36 56 56)">
        <rect x="54.6" y="40.5" width="2.8" height="3.5" rx="0.9" fill="#2976DE"></rect>
      </g>
      <g transform="rotate(72 56 56)">
        <rect x="54.6" y="40.5" width="2.8" height="3.5" rx="0.9" fill="#2976DE"></rect>
      </g>
      <g transform="rotate(108 56 56)">
        <rect x="54.6" y="40.5" width="2.8" height="3.5" rx="0.9" fill="#2976DE"></rect>
      </g>
      <g transform="rotate(144 56 56)">
        <rect x="54.6" y="40.5" width="2.8" height="3.5" rx="0.9" fill="#2976DE"></rect>
      </g>
      <g transform="rotate(180 56 56)">
        <rect x="54.6" y="40.5" width="2.8" height="3.5" rx="0.9" fill="#2976DE"></rect>
      </g>
      <g transform="rotate(216 56 56)">
        <rect x="54.6" y="40.5" width="2.8" height="3.5" rx="0.9" fill="#2976DE"></rect>
      </g>
      <g transform="rotate(252 56 56)">
        <rect x="54.6" y="40.5" width="2.8" height="3.5" rx="0.9" fill="#2976DE"></rect>
      </g>
      <g transform="rotate(288 56 56)">
        <rect x="54.6" y="40.5" width="2.8" height="3.5" rx="0.9" fill="#2976DE"></rect>
      </g>
      <g transform="rotate(324 56 56)">
        <rect x="54.6" y="40.5" width="2.8" height="3.5" rx="0.9" fill="#2976DE"></rect>
      </g>
    </g>
    <!-- Gear body -->
    <circle cx="56" cy="56" r="11" fill="#fff" stroke="#2976DE" stroke-width="2"></circle>
    <!-- Gear hub -->
    <circle cx="56" cy="56" r="3" fill="#2976DE"></circle>
  </g>
  <!-- App name -->
  <text x="60" y="112" text-anchor="middle" fill="#29419F" font-size="17" font-family="Inter,Segoe UI,sans-serif" font-weight="700">
    SpecFetch
  </text>
</svg>
